<?xml version="1.0" standalone="no"?>
<!DOCTYPE svg PUBLIC "-//W3C//DTD SVG 20010904//EN"
 "http://www.w3.org/TR/2001/REC-SVG-20010904/DTD/svg10.dtd">
<svg version="1.0" xmlns="http://www.w3.org/2000/svg"
 width="256.000000pt" height="256.000000pt" viewBox="0 0 256.000000 256.000000"
 preserveAspectRatio="xMidYMid meet">
<metadata>
Created by potrace 1.11, written by Peter Selinger 2001-2013
</metadata>
<g transform="translate(0.000000,256.000000) scale(0.100000,-0.100000)"
fill="#000000" stroke="none">
<path d="M1160 2329 c-482 -85 -847 -494 -877 -984 -31 -524 330 -992 849
-1099 102 -21 314 -21 416 0 231 48 445 173 594 347 280 329 335 776 144 1162
-137 276 -379 473 -681 555 -92 25 -349 36 -445 19z m645 -418 c147 -22 250
-91 300 -203 26 -56 29 -74 29 -158 -1 -117 -25 -187 -89 -258 -85 -95 -216
-142 -396 -142 -68 0 -100 -4 -108 -13 -7 -9 -12 -94 -13 -243 l-3 -229 -29
-3 -29 -4 6 234 c4 128 7 409 7 625 l0 392 58 4 c117 7 209 6 267 -2z"/>
<path d="M1570 1781 l-25 -7 -3 -234 c-1 -148 1 -237 8 -244 5 -5 50 -12 98
-14 106 -5 177 12 241 58 83 61 118 203 76 308 -22 54 -85 108 -149 127 -51
15 -200 19 -246 6z"/>
</g>
</svg>
