<?xml version="1.0" standalone="no"?>
<!DOCTYPE svg PUBLIC "-//W3C//DTD SVG 20010904//EN"
 "http://www.w3.org/TR/2001/REC-SVG-20010904/DTD/svg10.dtd">
<svg version="1.0" xmlns="http://www.w3.org/2000/svg"
 width="260.000000pt" height="260.000000pt" viewBox="0 0 260.000000 260.000000"
 preserveAspectRatio="xMidYMid meet">
<metadata>
Created by potrace 1.11, written by Peter Selinger 2001-2013
</metadata>
<g transform="translate(0.000000,260.000000) scale(0.100000,-0.100000)"
fill="#000000" stroke="none">
<path d="M392 2420 c-69 -32 -162 -118 -162 -149 0 -15 8 -21 33 -23 l32 -3
-55 -29 c-91 -47 -150 -114 -150 -170 0 -30 52 -76 85 -76 33 0 126 37 151 61
11 10 26 19 32 19 15 0 164 116 175 136 14 25 -6 15 -63 -29 -97 -76 -196
-130 -250 -135 -41 -4 -51 -1 -56 13 -17 44 81 151 189 205 l62 31 3 -26 c3
-20 7 -25 20 -20 32 13 224 56 229 51 12 -12 -108 -137 -163 -169 -13 -8 -20
-37 -9 -37 3 0 30 18 59 40 29 22 55 40 58 40 3 0 3 -21 1 -47 -5 -55 10 -103
32 -103 24 0 29 27 11 55 -17 26 -14 89 7 130 33 65 145 140 178 120 11 -7 49
22 49 37 0 4 -25 5 -55 2 -51 -6 -55 -5 -55 14 0 37 -21 36 -54 -1 -29 -34
-38 -38 -151 -61 -66 -13 -122 -23 -124 -20 -2 2 1 10 8 18 21 25 -13 26 -85
0 -38 -13 -73 -22 -79 -21 -5 2 13 27 40 57 45 48 129 100 163 100 21 0 25
-30 6 -51 -12 -14 -14 -23 -7 -30 13 -13 43 26 43 56 0 53 -56 59 -148 15z"/>
<path d="M1237 2388 c-31 -38 -84 -123 -123 -199 -17 -33 -97 -88 -196 -134
-86 -41 -114 -42 -110 -5 6 51 76 103 138 102 38 -1 45 2 42 16 -4 23 -77 28
-117 7 -36 -18 -77 -59 -97 -98 -14 -25 -14 -31 0 -51 18 -28 76 -40 114 -24
15 7 58 30 95 51 37 22 70 38 72 35 3 -3 -2 -19 -11 -37 -12 -23 -13 -36 -6
-43 8 -8 26 3 62 35 56 50 149 111 152 99 1 -4 2 -31 2 -61 1 -79 19 -86 93
-35 32 22 60 49 62 59 3 18 2 18 -20 2 -13 -9 -39 -26 -58 -37 l-34 -21 8 38
c15 79 13 88 -22 91 -34 3 -95 -29 -145 -76 -61 -56 -8 44 62 118 72 77 115
175 86 199 -11 9 -21 3 -49 -31z"/>
<path d="M300 1654 c-162 -33 -170 -35 -170 -60 0 -19 16 -18 48 6 24 17 160
46 170 35 2 -2 -13 -34 -34 -72 -94 -171 -89 -160 -75 -177 7 -9 17 -16 21
-16 13 0 130 238 124 253 -6 18 17 24 76 22 53 -3 90 -13 90 -25 0 -14 -52
-43 -125 -70 -100 -37 -94 -53 21 -61 92 -7 120 -15 144 -44 19 -23 -9 -49
-95 -90 -107 -51 -255 -83 -255 -55 0 23 169 90 227 90 32 0 46 21 24 34 -18
12 -238 -79 -302 -125 -30 -21 -31 -23 -13 -36 58 -42 329 31 427 115 24 21
22 67 -5 92 -12 11 -50 29 -83 39 l-60 19 39 16 c21 9 42 16 45 16 17 0 53 50
47 65 -16 43 -151 57 -286 29z"/>
<path d="M2408 1643 c-36 -40 -118 -162 -118 -177 0 -25 -26 -38 -48 -25 -35
22 -94 -4 -146 -62 -34 -38 -46 -59 -46 -83 0 -76 49 -75 134 4 l64 61 7 -33
c9 -41 33 -60 65 -52 33 8 120 72 120 90 0 20 -5 18 -61 -26 -28 -22 -54 -40
-59 -40 -30 0 -14 91 24 137 42 51 98 136 113 171 26 62 -3 83 -49 35z m32
-42 c0 -13 -82 -113 -88 -107 -2 3 3 16 12 28 9 13 26 38 37 56 20 30 39 42
39 23z m-190 -200 c0 -11 -100 -105 -128 -120 -12 -7 -27 -9 -32 -6 -21 13 41
94 95 123 24 14 65 15 65 3z"/>
<path d="M1445 1437 c-70 -21 -166 -79 -153 -92 3 -4 16 -2 27 4 20 11 20 10
15 -32 -6 -39 -3 -46 17 -61 31 -21 71 -20 118 4 46 23 81 64 81 94 0 62 -48
101 -105 83z m55 -42 c-10 -12 -10 -18 -1 -29 16 -19 3 -44 -40 -80 -30 -26
-78 -35 -80 -16 -1 6 -2 16 -3 23 -6 35 51 98 99 110 35 8 38 7 25 -8z"/>
<path d="M765 1426 c-31 -14 -70 -54 -93 -94 -11 -20 -10 -27 8 -52 34 -48
107 -39 205 27 59 39 67 41 55 9 -9 -26 3 -46 29 -46 7 0 56 21 108 46 52 25
97 43 100 40 3 -3 -7 -35 -23 -72 -24 -57 -35 -71 -86 -106 -57 -38 -139 -135
-153 -179 -4 -12 -2 -26 4 -32 7 -7 12 -5 16 9 14 45 43 91 89 141 45 50 66
64 66 44 0 -11 -85 -139 -111 -167 -25 -27 -24 -32 8 -30 20 1 37 15 71 61 24
33 55 82 68 108 14 26 34 57 44 67 24 24 92 27 110 5 16 -19 30 -19 30 0 0 24
-39 38 -86 31 -24 -3 -44 -3 -44 0 0 2 11 27 25 54 13 26 27 67 31 89 6 37 5
41 -15 41 -11 0 -65 -25 -119 -55 -128 -71 -147 -72 -97 -5 27 36 31 55 15 65
-5 3 -50 -22 -101 -57 -85 -58 -183 -103 -201 -92 -18 12 -5 31 40 59 26 16
52 32 57 34 6 2 23 13 38 23 22 16 25 23 16 34 -14 18 -65 17 -104 0z m65 -14
c0 -12 -82 -62 -92 -55 -12 7 8 27 47 47 34 18 45 20 45 8z"/>
<path d="M1661 1406 c-6 -8 -25 -19 -41 -26 -26 -11 -46 -37 -36 -47 2 -2 20
6 40 18 48 28 55 19 17 -24 -51 -57 -30 -101 26 -57 80 61 123 90 147 96 25 6
26 5 26 -40 0 -46 24 -86 53 -86 16 0 127 87 127 100 0 16 -10 12 -62 -25 -27
-20 -53 -33 -58 -30 -5 3 -6 27 -3 53 4 38 2 52 -12 65 -21 21 -42 16 -108
-24 -27 -16 -50 -29 -53 -29 -2 0 -4 10 -4 23 0 41 -36 61 -59 33z"/>
<path d="M383 805 c-77 -35 -160 -104 -214 -174 -27 -36 -49 -72 -49 -80 0 -8
-6 -22 -14 -30 -8 -9 -17 -40 -21 -69 -5 -47 -3 -55 19 -77 42 -42 80 -34 140
28 59 61 87 94 101 121 14 27 41 35 31 10 -15 -37 -18 -91 -7 -113 19 -35 58
-25 166 43 59 38 104 60 109 55 6 -5 3 -16 -6 -26 -9 -10 -23 -33 -33 -52 -14
-29 -15 -37 -4 -58 12 -22 19 -25 56 -20 23 2 49 12 58 21 9 9 20 16 25 16 5
0 43 27 84 60 42 33 78 60 80 60 3 0 2 -24 0 -52 -5 -57 11 -103 36 -103 21 0
24 32 6 60 -13 20 -14 33 -5 75 20 95 123 184 192 166 11 -3 24 5 34 20 21 32
13 38 -34 25 -55 -16 -63 -14 -63 12 0 39 -11 39 -54 -1 -37 -34 -52 -40 -156
-61 -127 -26 -150 -35 -150 -56 0 -19 -1 -19 90 4 41 10 95 22 118 26 42 7 43
6 33 -13 -21 -40 -177 -173 -239 -204 -82 -41 -97 -28 -42 35 40 45 41 48 29
81 -7 20 -18 37 -25 40 -6 2 -36 -11 -65 -30 -30 -19 -67 -42 -84 -50 -16 -8
-48 -27 -70 -43 l-40 -30 -3 29 c-2 16 4 46 13 67 10 21 21 47 26 58 29 66 39
109 27 117 -23 14 -33 7 -86 -66 -83 -114 -207 -238 -235 -234 -62 9 9 171
132 301 44 47 134 100 162 95 l21 -3 -21 -27 c-26 -32 -26 -38 -2 -38 15 0 21
10 26 40 4 21 4 43 1 48 -12 20 -47 19 -93 -3z"/>
<path d="M1715 721 c-36 -33 -51 -39 -155 -60 -126 -25 -150 -34 -150 -58 0
-11 6 -14 23 -9 60 17 211 46 221 42 21 -8 -185 -196 -216 -196 -4 0 -5 12 -2
28 7 36 -17 106 -38 110 -11 2 -23 -8 -32 -27 -9 -16 -30 -39 -47 -51 -41 -30
-160 -93 -165 -88 -2 3 5 29 15 59 17 47 18 56 5 69 -12 13 -19 12 -52 -5 -61
-31 -92 -55 -92 -71 0 -11 9 -8 37 11 45 30 69 33 58 8 -25 -57 -29 -93 -14
-108 12 -12 22 -14 42 -6 35 14 165 98 200 130 20 18 30 22 38 14 9 -9 6 -24
-12 -60 -22 -43 -27 -48 -59 -48 -19 -1 -41 -4 -48 -8 -20 -13 5 -47 35 -47
39 0 161 63 231 120 34 27 64 50 66 50 2 0 2 -26 -1 -57 -4 -48 -2 -62 14 -82
34 -42 60 0 27 44 -11 14 -13 31 -8 60 8 50 24 78 72 133 34 38 43 43 88 45
35 1 54 8 66 22 25 28 22 38 -8 31 -80 -20 -84 -20 -84 7 0 39 -12 39 -55 -2z"/>
<path d="M1204 675 c-4 -9 -2 -21 4 -27 15 -15 44 -1 40 19 -4 23 -36 29 -44
8z"/>
<path d="M1803 519 c-40 -27 -73 -54 -73 -59 0 -16 11 -12 80 30 36 22 66 36
68 30 2 -5 -8 -29 -22 -53 -28 -48 -33 -76 -14 -95 19 -19 72 -14 101 8 14 11
28 20 33 20 4 0 27 16 51 36 48 40 59 40 44 2 -11 -28 2 -48 29 -48 9 0 53 18
99 40 76 37 111 48 111 35 0 -3 -13 -33 -28 -68 -24 -51 -40 -70 -90 -106 -33
-24 -79 -68 -101 -99 -61 -82 -67 -125 -17 -138 44 -11 97 46 178 191 26 47
52 81 66 86 36 14 82 11 88 -6 8 -20 34 -19 34 0 0 22 -45 36 -92 28 -24 -3
-39 -2 -36 3 23 43 51 114 55 141 9 53 -15 50 -135 -14 -61 -32 -113 -55 -117
-51 -4 3 5 24 19 45 52 76 21 84 -69 18 -82 -61 -135 -92 -167 -100 -39 -10
-36 12 7 62 39 46 40 51 23 88 -16 36 -41 31 -125 -26z m382 -301 c-70 -114
-132 -175 -118 -115 14 54 134 199 151 182 3 -3 -12 -33 -33 -67z"/>
</g>
</svg>
