<svg id="Base" xmlns="http://www.w3.org/2000/svg" viewBox="0 0 1440 900"><defs><style>.cls-1{fill:#f2f2f2;}.cls-2{opacity:0.06;}.cls-3{fill:#d0d0d0;}.cls-4{fill:#e3e3e3;}.cls-5{fill:#d1d1d1;}.cls-6{fill:#d3d3d3;}.cls-7{fill:#d9d9d9;}.cls-8{fill:#cecece;}.cls-9{fill:#eaeaea;}.cls-10{fill:#f4f4f4;}.cls-11{fill:#d7d7d7;}.cls-12{fill:#f1f1f1;}.cls-13{fill:#f0f0f0;}.cls-14{fill:#ededed;}.cls-15{fill:#e4e4e4;}.cls-16{fill:#d5d5d5;}.cls-17{fill:#cfcfcf;}.cls-18{fill:#dfdfdf;}.cls-19{fill:#ececec;}.cls-20{fill:#ebebeb;}.cls-21{fill:#989898;}.cls-22{fill:#e6e6e6;}.cls-23{fill:#c7c7c7;}.cls-24{fill:#d8d8d8;}.cls-25{fill:#eee;}.cls-26{fill:#e7e7e7;}.cls-27{fill:#e5e5e5;}.cls-28{fill:#c6c6c6;}.cls-29{fill:none;stroke:#f2f2f2;stroke-miterlimit:10;}.cls-30{fill:#b5b5b5;}.cls-31{fill:#797979;}.cls-32{fill:#d2d2d2;}.cls-33{fill:#8c8c8c;}.cls-34{fill:#686868;}.cls-35{fill:#e9e9e9;}.cls-36{fill:#acacac;}.cls-37{fill:#bababa;}.cls-38{fill:#a4a4a4;}.cls-39{fill:#e8e8e8;}.cls-40{fill:#9d9d9d;}.cls-41{fill:#a8a8a8;}.cls-42{fill:#707070;}.cls-43{fill:#a9a9a9;}.cls-44{fill:#8e8e8e;}.cls-45{fill:#959595;}.cls-46{fill:#6b6b6b;}.cls-47{fill:#e1e1e1;}.cls-48{fill:#ababab;}.cls-49{fill:#a3a3a3;}.cls-50{fill:#b6b6b6;}.cls-51{fill:#aeaeae;}.cls-52{fill:#9c9c9c;}.cls-53{fill:#bbb;}.cls-54{fill:#b7b7b7;}.cls-55{fill:#7c7c7c;}.cls-56{fill:#bfbfbf;}.cls-57{fill:#bdbdbd;}.cls-58{fill:#656565;}.cls-59{fill:#9e9e9e;}.cls-60{fill:#6a6a6a;}.cls-61{fill:#939393;}.cls-62{fill:#d4d4d4;}.cls-63{fill:#dcdcdc;}.cls-64{fill:#c1c1c1;}.cls-65{fill:#b2b2b2;}.cls-66{fill:#818181;}.cls-67{fill:#dbdbdb;}.cls-68{fill:#e2e2e2;}.cls-69{fill:#737373;}.cls-70{fill:#8f8f8f;}.cls-71{fill:#b9b9b9;}.cls-72{fill:#b8b8b8;}.cls-73{fill:#afafaf;}.cls-74{fill:#dadada;}.cls-75{fill:#c2c2c2;}.cls-76{fill:#7f7f7f;}.cls-77{fill:#cdcdcd;}.cls-78{fill:#6d6d6d;}.cls-79{fill:#8b8b8b;}.cls-80{fill:#8a8a8a;}.cls-81{fill:#b1b1b1;}.cls-82{fill:#b4b4b4;}.cls-83{fill:#9a9a9a;}</style></defs><title>background</title><g id="Landing_Page_-_Device_1" data-name="Landing Page - Device 1"><rect class="cls-1" width="1440" height="900"/><g class="cls-2"><polygon class="cls-3" points="1185.88 0 1270.59 81.82 1355.29 0 1185.88 0"/><polygon class="cls-4" points="1440 81.82 1355.29 0 1270.59 81.82 1440 81.82"/><polygon class="cls-5" points="1270.59 81.82 1185.88 0 1101.18 81.82 1270.59 81.82"/><polygon class="cls-6" points="1016.47 0 1101.18 81.82 1185.88 0 1016.47 0"/><polygon class="cls-7" points="1355.29 0 1440 81.82 1440 0 1355.29 0"/><polygon class="cls-8" points="1101.18 81.82 1016.47 0 931.76 81.82 1101.18 81.82"/><polygon class="cls-9" points="931.76 81.82 847.06 0 762.35 81.82 931.76 81.82"/><polygon class="cls-10" points="677.65 0 762.35 81.82 847.06 0 677.65 0"/><polygon class="cls-11" points="847.06 0 931.76 81.82 1016.47 0 847.06 0"/><polygon class="cls-10" points="762.35 81.82 677.65 0 592.94 81.82 762.35 81.82"/><polygon class="cls-12" points="592.94 81.82 508.24 0 423.53 81.82 592.94 81.82"/><polygon class="cls-13" points="338.82 0 423.53 81.82 508.24 0 338.82 0"/><polygon class="cls-14" points="508.24 0 592.94 81.82 677.65 0 508.24 0"/><polygon class="cls-15" points="423.53 81.82 338.82 0 254.12 81.82 423.53 81.82"/><polygon class="cls-16" points="254.12 81.82 169.41 0 84.71 81.82 254.12 81.82"/><polygon class="cls-7" points="84.71 81.82 0 0 0 81.82 84.71 81.82"/><polygon class="cls-17" points="0 0 84.71 81.82 169.41 0 0 0"/><polygon class="cls-18" points="169.41 0 254.12 81.82 338.82 0 169.41 0"/><polygon class="cls-19" points="1355.29 163.64 1270.59 81.82 1185.88 163.64 1355.29 163.64"/><polygon class="cls-20" points="1185.88 163.64 1101.18 81.82 1016.47 163.64 1185.88 163.64"/><polygon class="cls-15" points="931.76 81.82 1016.47 163.64 1101.18 81.82 931.76 81.82"/><polygon class="cls-21" points="1101.18 81.82 1185.88 163.64 1270.59 81.82 1101.18 81.82"/><polygon class="cls-11" points="1440 163.64 1440 81.82 1355.29 163.64 1440 163.64"/><polygon class="cls-22" points="1270.59 81.82 1355.29 163.64 1440 81.82 1270.59 81.82"/><polygon class="cls-20" points="1016.47 163.64 931.76 81.82 847.06 163.64 1016.47 163.64"/><polygon class="cls-23" points="847.06 163.64 762.35 81.82 677.65 163.64 847.06 163.64"/><polygon class="cls-23" points="592.94 81.82 677.65 163.64 762.35 81.82 592.94 81.82"/><polygon class="cls-24" points="762.35 81.82 847.06 163.64 931.76 81.82 762.35 81.82"/><polygon class="cls-10" points="677.65 163.64 592.94 81.82 508.24 163.64 677.65 163.64"/><polygon class="cls-11" points="508.24 163.64 423.53 81.82 338.82 163.64 508.24 163.64"/><polygon class="cls-16" points="254.12 81.82 338.82 163.64 423.53 81.82 254.12 81.82"/><polygon class="cls-25" points="423.53 81.82 508.24 163.64 592.94 81.82 423.53 81.82"/><polygon class="cls-23" points="338.82 163.64 254.12 81.82 169.41 163.64 338.82 163.64"/><polygon class="cls-26" points="169.41 163.64 84.71 81.82 0 163.64 169.41 163.64"/><polygon class="cls-27" points="0 81.82 0 163.64 84.71 81.82 0 81.82"/><polygon class="cls-28" points="84.71 81.82 169.41 163.64 254.12 81.82 84.71 81.82"/><polygon class="cls-29" points="1270.59 245.46 1185.88 163.64 1101.18 245.46 1270.59 245.46"/><polygon class="cls-12" points="1101.18 245.46 1016.47 163.64 931.76 245.46 1101.18 245.46"/><polygon class="cls-19" points="847.06 163.64 931.76 245.46 1016.47 163.64 847.06 163.64"/><polygon class="cls-29" points="1016.47 163.64 1101.18 245.46 1185.88 163.64 1016.47 163.64"/><polygon class="cls-20" points="1270.59 245.46 1185.88 163.64 1101.18 245.46 1270.59 245.46"/><polygon class="cls-23" points="1016.47 163.64 1101.18 245.46 1185.88 163.64 1016.47 163.64"/><polygon class="cls-30" points="1440 245.46 1355.29 163.64 1270.59 245.46 1440 245.46"/><polygon class="cls-31" points="1185.88 163.64 1270.59 245.46 1355.29 163.64 1185.88 163.64"/><polygon class="cls-32" points="1355.29 163.64 1440 245.46 1440 163.64 1355.29 163.64"/><polygon class="cls-14" points="931.76 245.46 847.06 163.64 762.35 245.46 931.76 245.46"/><polygon class="cls-33" points="762.35 245.46 677.65 163.64 592.94 245.46 762.35 245.46"/><polygon class="cls-34" points="508.24 163.64 592.94 245.46 677.65 163.64 508.24 163.64"/><polygon class="cls-35" points="677.65 163.64 762.35 245.46 847.06 163.64 677.65 163.64"/><polygon class="cls-23" points="592.94 245.46 508.24 163.64 423.53 245.46 592.94 245.46"/><polygon class="cls-10" points="423.53 245.46 338.82 163.64 254.12 245.46 423.53 245.46"/><polygon class="cls-14" points="169.41 163.64 254.12 245.46 338.82 163.64 169.41 163.64"/><polygon class="cls-14" points="338.82 163.64 423.53 245.46 508.24 163.64 338.82 163.64"/><polygon class="cls-36" points="254.12 245.46 169.41 163.64 84.71 245.46 254.12 245.46"/><polygon class="cls-3" points="84.71 245.46 0 163.64 0 245.46 84.71 245.46"/><polygon class="cls-14" points="0 163.64 84.71 245.46 169.41 163.64 0 163.64"/><polygon class="cls-22" points="1355.29 327.27 1270.59 245.46 1185.88 327.27 1355.29 327.27"/><polygon class="cls-12" points="1101.18 245.46 1185.88 327.27 1270.59 245.46 1101.18 245.46"/><polygon class="cls-37" points="1440 327.27 1440 245.46 1355.29 327.27 1440 327.27"/><polygon class="cls-4" points="1270.59 245.46 1355.29 327.27 1440 245.46 1270.59 245.46"/><polygon class="cls-38" points="1185.88 327.27 1101.18 245.46 1016.47 327.27 1185.88 327.27"/><polygon class="cls-14" points="1016.47 327.27 931.76 245.46 847.06 327.27 1016.47 327.27"/><polygon class="cls-18" points="762.35 245.46 847.06 327.27 931.76 245.46 762.35 245.46"/><polygon class="cls-12" points="931.76 245.46 1016.47 327.27 1101.18 245.46 931.76 245.46"/><polygon class="cls-11" points="847.06 327.27 762.35 245.46 677.65 327.27 847.06 327.27"/><polygon class="cls-13" points="677.65 327.27 592.94 245.46 508.24 327.27 677.65 327.27"/><polygon class="cls-20" points="423.53 245.46 508.24 327.27 592.94 245.46 423.53 245.46"/><polygon class="cls-27" points="592.94 245.46 677.65 327.27 762.35 245.46 592.94 245.46"/><polygon class="cls-39" points="508.24 327.27 423.53 245.46 338.82 327.27 508.24 327.27"/><polygon class="cls-36" points="338.82 327.27 254.12 245.46 169.41 327.27 338.82 327.27"/><polygon class="cls-14" points="84.71 245.46 169.41 327.27 254.12 245.46 84.71 245.46"/><polygon class="cls-22" points="254.12 245.46 338.82 327.27 423.53 245.46 254.12 245.46"/><polygon class="cls-40" points="169.41 327.27 84.71 245.46 0 327.27 169.41 327.27"/><polygon class="cls-41" points="0 245.46 0 327.27 84.71 245.46 0 245.46"/><polygon class="cls-42" points="1016.47 327.27 1101.18 409.09 1185.88 327.27 1016.47 327.27"/><polygon class="cls-43" points="1270.59 409.09 1185.88 327.27 1101.18 409.09 1270.59 409.09"/><polygon class="cls-4" points="1440 409.09 1355.29 327.27 1270.59 409.09 1440 409.09"/><polygon class="cls-44" points="1185.88 327.27 1270.59 409.09 1355.29 327.27 1185.88 327.27"/><polygon class="cls-45" points="1355.29 327.27 1440 409.09 1440 327.27 1355.29 327.27"/><polygon class="cls-46" points="1101.18 409.09 1016.47 327.27 931.76 409.09 1101.18 409.09"/><polygon class="cls-15" points="931.76 409.09 847.06 327.27 762.35 409.09 931.76 409.09"/><polygon class="cls-6" points="677.65 327.27 762.35 409.09 847.06 327.27 677.65 327.27"/><polygon class="cls-18" points="847.06 327.27 931.76 409.09 1016.47 327.27 847.06 327.27"/><polygon class="cls-47" points="762.35 409.09 677.65 327.27 592.94 409.09 762.35 409.09"/><polygon class="cls-3" points="592.94 409.09 508.24 327.27 423.53 409.09 592.94 409.09"/><polygon class="cls-41" points="338.82 327.27 423.53 409.09 508.24 327.27 338.82 327.27"/><polygon class="cls-15" points="508.24 327.27 592.94 409.09 677.65 327.27 508.24 327.27"/><polygon class="cls-40" points="423.53 409.09 338.82 327.27 254.12 409.09 423.53 409.09"/><polygon class="cls-48" points="254.12 409.09 169.41 327.27 84.71 409.09 254.12 409.09"/><polygon class="cls-49" points="0 327.27 84.71 409.09 169.41 327.27 0 327.27"/><polygon class="cls-50" points="169.41 327.27 254.12 409.09 338.82 327.27 169.41 327.27"/><polygon class="cls-51" points="84.71 409.09 0 327.27 0 409.09 84.71 409.09"/><polygon class="cls-27" points="1355.29 490.91 1270.59 409.09 1185.88 490.91 1355.29 490.91"/><polygon class="cls-6" points="1101.18 409.09 1185.88 490.91 1270.59 409.09 1101.18 409.09"/><polygon class="cls-52" points="1440 490.91 1440 409.09 1355.29 490.91 1440 490.91"/><polygon class="cls-43" points="1270.59 409.09 1355.29 490.91 1440 409.09 1270.59 409.09"/><polygon class="cls-24" points="1185.88 490.91 1101.18 409.09 1016.47 490.91 1185.88 490.91"/><polygon class="cls-30" points="931.76 409.09 1016.47 490.91 1101.18 409.09 931.76 409.09"/><polygon class="cls-53" points="1016.47 490.91 931.76 409.09 847.06 490.91 1016.47 490.91"/><polygon class="cls-34" points="847.06 490.91 762.35 409.09 677.65 490.91 847.06 490.91"/><polygon class="cls-33" points="592.94 409.09 677.65 490.91 762.35 409.09 592.94 409.09"/><polygon class="cls-15" points="762.35 409.09 847.06 490.91 931.76 409.09 762.35 409.09"/><polygon class="cls-23" points="677.65 490.91 592.94 409.09 508.24 490.91 677.65 490.91"/><polygon class="cls-7" points="508.24 490.91 423.53 409.09 338.82 490.91 508.24 490.91"/><polygon class="cls-54" points="254.12 409.09 338.82 490.91 423.53 409.09 254.12 409.09"/><polygon class="cls-22" points="423.53 409.09 508.24 490.91 592.94 409.09 423.53 409.09"/><polygon class="cls-55" points="338.82 490.91 254.12 409.09 169.41 490.91 338.82 490.91"/><polygon class="cls-56" points="169.41 490.91 84.71 409.09 0 490.91 169.41 490.91"/><polygon class="cls-6" points="0 409.09 0 490.91 84.71 409.09 0 409.09"/><polygon class="cls-31" points="84.71 409.09 169.41 490.91 254.12 409.09 84.71 409.09"/><polygon class="cls-35" points="1016.47 490.91 1101.18 572.73 1185.88 490.91 1016.47 490.91"/><polygon class="cls-11" points="847.06 490.91 931.76 572.73 1016.47 490.91 847.06 490.91"/><polygon class="cls-29" points="1270.59 572.73 1185.88 490.91 1101.18 572.73 1270.59 572.73"/><polygon class="cls-57" points="1270.59 572.73 1185.88 490.91 1101.18 572.73 1270.59 572.73"/><polygon class="cls-58" points="1440 572.73 1355.29 490.91 1270.59 572.73 1440 572.73"/><polygon class="cls-59" points="1185.88 490.91 1270.59 572.73 1355.29 490.91 1185.88 490.91"/><polygon class="cls-60" points="1355.29 490.91 1440 572.73 1440 490.91 1355.29 490.91"/><polygon class="cls-61" points="1101.18 572.73 1016.47 490.91 931.76 572.73 1101.18 572.73"/><polygon class="cls-62" points="931.76 572.73 847.06 490.91 762.35 572.73 931.76 572.73"/><polygon class="cls-56" points="762.35 572.73 677.65 490.91 592.94 572.73 762.35 572.73"/><polygon class="cls-56" points="508.24 490.91 592.94 572.73 677.65 490.91 508.24 490.91"/><polygon class="cls-17" points="677.65 490.91 762.35 572.73 847.06 490.91 677.65 490.91"/><polygon class="cls-39" points="592.94 572.73 508.24 490.91 423.53 572.73 592.94 572.73"/><polygon class="cls-3" points="423.53 572.73 338.82 490.91 254.12 572.73 423.53 572.73"/><polygon class="cls-63" points="169.41 490.91 254.12 572.73 338.82 490.91 169.41 490.91"/><polygon class="cls-25" points="338.82 490.91 423.53 572.73 508.24 490.91 338.82 490.91"/><polygon class="cls-24" points="254.12 572.73 169.41 490.91 84.71 572.73 254.12 572.73"/><polygon class="cls-48" points="84.71 572.73 0 490.91 0 572.73 84.71 572.73"/><polygon class="cls-3" points="0 490.91 84.71 572.73 169.41 490.91 0 490.91"/><polygon class="cls-64" points="1355.29 654.54 1270.59 572.73 1185.88 654.54 1355.29 654.54"/><polygon class="cls-36" points="1101.18 572.73 1185.88 654.54 1270.59 572.73 1101.18 572.73"/><polygon class="cls-5" points="1440 654.54 1440 572.73 1355.29 654.54 1440 654.54"/><polygon class="cls-65" points="1270.59 572.73 1355.29 654.54 1440 572.73 1270.59 572.73"/><polygon class="cls-66" points="1185.88 654.54 1101.18 572.73 1016.47 654.54 1185.88 654.54"/><polygon class="cls-35" points="931.76 572.73 1016.47 654.54 1101.18 572.73 931.76 572.73"/><polygon class="cls-53" points="1016.47 654.54 931.76 572.73 847.06 654.54 1016.47 654.54"/><polygon class="cls-67" points="762.35 572.73 847.06 654.54 931.76 572.73 762.35 572.73"/><polygon class="cls-9" points="847.06 654.54 762.35 572.73 677.65 654.54 847.06 654.54"/><polygon class="cls-68" points="677.65 654.54 592.94 572.73 508.24 654.54 677.65 654.54"/><polygon class="cls-48" points="423.53 572.73 508.24 654.54 592.94 572.73 423.53 572.73"/><polygon class="cls-10" points="592.94 572.73 677.65 654.54 762.35 572.73 592.94 572.73"/><polygon class="cls-55" points="508.24 654.54 423.53 572.73 338.82 654.54 508.24 654.54"/><polygon class="cls-69" points="338.82 654.54 254.12 572.73 169.41 654.54 338.82 654.54"/><polygon class="cls-9" points="84.71 572.73 169.41 654.54 254.12 572.73 84.71 572.73"/><polygon class="cls-68" points="254.12 572.73 338.82 654.54 423.53 572.73 254.12 572.73"/><polygon class="cls-70" points="169.41 654.54 84.71 572.73 0 654.54 169.41 654.54"/><polygon class="cls-40" points="0 572.73 0 654.54 84.71 572.73 0 572.73"/><polygon class="cls-71" points="1016.47 654.54 1101.18 736.36 1185.88 654.54 1016.47 654.54"/><polygon class="cls-68" points="847.06 654.54 931.76 736.36 1016.47 654.54 847.06 654.54"/><polygon class="cls-21" points="1270.59 736.36 1185.88 654.54 1101.18 736.36 1270.59 736.36"/><polygon class="cls-21" points="1270.59 736.36 1185.88 654.54 1101.18 736.36 1270.59 736.36"/><polygon class="cls-72" points="1440 736.36 1355.29 654.54 1270.59 736.36 1440 736.36"/><polygon class="cls-40" points="1185.88 654.54 1270.59 736.36 1355.29 654.54 1185.88 654.54"/><polygon class="cls-73" points="1355.29 654.54 1440 736.36 1440 654.54 1355.29 654.54"/><polygon class="cls-73" points="1355.29 654.54 1440 736.36 1440 654.54 1355.29 654.54"/><polygon class="cls-74" points="1101.18 736.36 1016.47 654.54 931.76 736.36 1101.18 736.36"/><polygon class="cls-75" points="931.76 736.36 847.06 654.54 762.35 736.36 931.76 736.36"/><polygon class="cls-73" points="677.65 654.54 762.35 736.36 847.06 654.54 677.65 654.54"/><polygon class="cls-9" points="762.35 736.36 677.65 654.54 592.94 736.36 762.35 736.36"/><polygon class="cls-5" points="592.94 736.36 508.24 654.54 423.53 736.36 592.94 736.36"/><polygon class="cls-56" points="338.82 654.54 423.53 736.36 508.24 654.54 338.82 654.54"/><polygon class="cls-76" points="508.24 654.54 592.94 736.36 677.65 654.54 508.24 654.54"/><polygon class="cls-34" points="423.53 736.36 338.82 654.54 254.12 736.36 423.53 736.36"/><polygon class="cls-6" points="254.12 736.36 169.41 654.54 84.71 736.36 254.12 736.36"/><polygon class="cls-6" points="0 654.54 84.71 736.36 169.41 654.54 0 654.54"/><polygon class="cls-55" points="169.41 654.54 254.12 736.36 338.82 654.54 169.41 654.54"/><polygon class="cls-77" points="84.71 736.36 0 654.54 0 736.36 84.71 736.36"/><polygon class="cls-49" points="1355.29 818.18 1270.59 736.36 1185.88 818.18 1355.29 818.18"/><polygon class="cls-17" points="1101.18 736.36 1185.88 818.18 1270.59 736.36 1101.18 736.36"/><polygon class="cls-78" points="1440 818.18 1440 736.36 1355.29 818.18 1440 818.18"/><polygon class="cls-21" points="1270.59 736.36 1355.29 818.18 1440 736.36 1270.59 736.36"/><polygon class="cls-65" points="1185.88 818.18 1101.18 736.36 1016.47 818.18 1185.88 818.18"/><polygon class="cls-79" points="931.76 736.36 1016.47 818.18 1101.18 736.36 931.76 736.36"/><polygon class="cls-80" points="1016.47 818.18 931.76 736.36 847.06 818.18 1016.47 818.18"/><polygon class="cls-81" points="762.35 736.36 847.06 818.18 931.76 736.36 762.35 736.36"/><polygon class="cls-72" points="847.06 818.18 762.35 736.36 677.65 818.18 847.06 818.18"/><polygon class="cls-38" points="592.94 736.36 677.65 818.18 762.35 736.36 592.94 736.36"/><polygon class="cls-7" points="677.65 818.18 592.94 736.36 508.24 818.18 677.65 818.18"/><polygon class="cls-53" points="508.24 818.18 423.53 736.36 338.82 818.18 508.24 818.18"/><polygon class="cls-3" points="254.12 736.36 338.82 818.18 423.53 736.36 254.12 736.36"/><polygon class="cls-16" points="423.53 736.36 508.24 818.18 592.94 736.36 423.53 736.36"/><polygon class="cls-82" points="338.82 818.18 254.12 736.36 169.41 818.18 338.82 818.18"/><polygon class="cls-83" points="169.41 818.18 84.71 736.36 0 818.18 169.41 818.18"/><polygon class="cls-83" points="0 736.36 0 818.18 84.71 736.36 0 736.36"/><polygon class="cls-59" points="84.71 736.36 169.41 818.18 254.12 736.36 84.71 736.36"/><polygon class="cls-79" points="1016.47 818.18 1101.18 900 1185.88 818.18 1016.47 818.18"/><polygon class="cls-40" points="847.06 818.18 931.76 900 1016.47 818.18 847.06 818.18"/><polygon class="cls-81" points="1270.59 900 1185.88 818.18 1101.18 900 1270.59 900"/><polygon class="cls-68" points="1270.59 900 1185.88 818.18 1101.18 900 1270.59 900"/><polygon class="cls-21" points="1440 900 1355.29 818.18 1270.59 900 1440 900"/><polygon class="cls-17" points="1185.88 818.18 1270.59 900 1355.29 818.18 1185.88 818.18"/><polygon class="cls-81" points="1355.29 818.18 1440 900 1440 818.18 1355.29 818.18"/><polygon class="cls-68" points="1355.29 818.18 1440 900 1440 818.18 1355.29 818.18"/><polygon class="cls-71" points="1101.18 900 1016.47 818.18 931.76 900 1101.18 900"/><polygon class="cls-75" points="931.76 900 847.06 818.18 762.35 900 931.76 900"/><polygon class="cls-38" points="677.65 818.18 762.35 900 847.06 818.18 677.65 818.18"/><polygon class="cls-72" points="762.35 900 677.65 818.18 592.94 900 762.35 900"/><polygon class="cls-7" points="508.24 818.18 592.94 900 677.65 818.18 508.24 818.18"/><polygon class="cls-38" points="592.94 900 508.24 818.18 423.53 900 592.94 900"/><polygon class="cls-3" points="423.53 900 338.82 818.18 254.12 900 423.53 900"/><polygon class="cls-59" points="169.41 818.18 254.12 900 338.82 818.18 169.41 818.18"/><polygon class="cls-61" points="338.82 818.18 423.53 900 508.24 818.18 338.82 818.18"/><polygon class="cls-82" points="254.12 900 169.41 818.18 84.71 900 254.12 900"/><polygon class="cls-40" points="84.71 900 0 818.18 0 900 84.71 900"/><polygon class="cls-77" points="0 818.18 84.71 900 169.41 818.18 0 818.18"/></g></g></svg>